<svg width="24" height="24" viewBox="0 0 24 24" fill="none" xmlns="http://www.w3.org/2000/svg">
<path fill-rule="evenodd" clip-rule="evenodd" d="M16.6761 2.62805C13.53 1.92477 10.2673 1.92477 7.12113 2.62805L6.78213 2.70305C5.89714 2.90091 5.08434 3.34023 4.434 3.97221C3.78366 4.60419 3.32124 5.40409 3.09813 6.28305C2.30062 9.42557 2.30062 12.7175 3.09813 15.86C3.3109 16.6983 3.74153 17.4654 4.34636 18.0836C4.95119 18.7018 5.70871 19.149 6.54213 19.38L7.00713 22.156C7.02197 22.2442 7.06017 22.3268 7.11776 22.3951C7.17535 22.4635 7.25021 22.5152 7.33455 22.5448C7.4189 22.5744 7.50963 22.5809 7.59732 22.5635C7.68501 22.5461 7.76644 22.5056 7.83313 22.446L10.5641 20.003C12.6142 20.1282 14.6717 19.9642 16.6761 19.516L17.0161 19.441C17.9011 19.2432 18.7139 18.8039 19.3643 18.1719C20.0146 17.5399 20.477 16.74 20.7001 15.861C21.4975 12.7185 21.4975 9.42658 20.7001 6.28405C20.4769 5.40496 20.0144 4.60498 19.3638 3.97298C18.7133 3.34099 17.9003 2.90174 17.0151 2.70405L16.6761 2.62805ZM7.96513 6.20205C7.77927 6.17499 7.58976 6.2124 7.42813 6.30805H7.41413C7.03913 6.52805 6.70113 6.80505 6.41313 7.13105C6.17313 7.40805 6.04313 7.68805 6.00913 7.95805C5.98913 8.11805 6.00313 8.28005 6.05013 8.43304L6.06813 8.44305C6.33813 9.23604 6.69013 9.99904 7.12013 10.717C7.67458 11.7255 8.35688 12.6582 9.15013 13.492L9.17413 13.526L9.21213 13.554L9.23513 13.581L9.26313 13.605C10.0999 14.4007 11.0347 15.0862 12.0451 15.645C13.2001 16.274 13.9011 16.571 14.3221 16.695V16.701C14.4451 16.739 14.5571 16.756 14.6701 16.756C15.0287 16.7295 15.368 16.5838 15.6341 16.342C15.9591 16.054 16.2341 15.715 16.4481 15.338V15.331C16.6491 14.951 16.5811 14.593 16.2911 14.35C15.7086 13.8411 15.0788 13.389 14.4101 13C13.9621 12.757 13.5071 12.904 13.3231 13.15L12.9301 13.646C12.7281 13.892 12.3621 13.858 12.3621 13.858L12.3521 13.864C9.62113 13.167 8.89213 10.402 8.89213 10.402C8.89213 10.402 8.85813 10.026 9.11113 9.83404L9.60313 9.43805C9.83913 9.24605 10.0031 8.79205 9.75013 8.34405C9.36373 7.67481 8.91257 7.04512 8.40313 6.46405C8.29202 6.32729 8.13619 6.23415 7.96313 6.20105L7.96513 6.20205ZM12.5791 5.00005C12.4465 5.00005 12.3193 5.05272 12.2256 5.14649C12.1318 5.24026 12.0791 5.36744 12.0791 5.50005C12.0791 5.63265 12.1318 5.75983 12.2256 5.8536C12.3193 5.94737 12.4465 6.00005 12.5791 6.00005C13.8441 6.00005 14.8941 6.41305 15.7251 7.20505C16.1521 7.63805 16.4851 8.15105 16.7031 8.71305C16.9221 9.27605 17.0221 9.87704 16.9961 10.479C16.9934 10.5447 17.0036 10.6103 17.0262 10.672C17.0487 10.7337 17.0832 10.7904 17.1277 10.8387C17.2176 10.9365 17.3425 10.9945 17.4751 11C17.6077 11.0056 17.7371 10.9583 17.8348 10.8684C17.9325 10.7786 17.9906 10.6537 17.9961 10.521C18.0271 9.78053 17.9042 9.04163 17.6351 8.35105C17.3649 7.65718 16.9551 7.02616 16.4311 6.49705L16.4211 6.48705C15.3901 5.50205 14.0851 5.00005 12.5791 5.00005ZM12.5451 6.64405C12.4125 6.64405 12.2853 6.69672 12.1916 6.79049C12.0978 6.88426 12.0451 7.01144 12.0451 7.14405C12.0451 7.27665 12.0978 7.40383 12.1916 7.4976C12.2853 7.59137 12.4125 7.64405 12.5451 7.64405H12.5621C13.4741 7.70905 14.1381 8.01305 14.6031 8.51205C15.0801 9.02605 15.3271 9.66504 15.3081 10.455C15.3051 10.5877 15.3548 10.716 15.4464 10.812C15.5381 10.9079 15.664 10.9635 15.7966 10.9665C15.9292 10.9696 16.0576 10.9198 16.1535 10.8282C16.2495 10.7366 16.3051 10.6107 16.3081 10.478C16.3321 9.44104 15.9981 8.54605 15.3361 7.83205V7.83005C14.6591 7.10405 13.7301 6.72005 12.6121 6.64505L12.5951 6.64305L12.5451 6.64405ZM12.5261 8.31905C12.4592 8.31314 12.3918 8.32078 12.3279 8.34151C12.264 8.36223 12.2049 8.39562 12.1542 8.43968C12.1035 8.48374 12.0622 8.53757 12.0328 8.59794C12.0033 8.65832 11.9864 8.72401 11.9829 8.79109C11.9794 8.85818 11.9894 8.92528 12.0124 8.98839C12.0354 9.0515 12.0709 9.10932 12.1168 9.15841C12.1626 9.2075 12.2179 9.24685 12.2793 9.2741C12.3407 9.30136 12.407 9.31596 12.4741 9.31705C12.8921 9.33905 13.1591 9.46504 13.3271 9.63405C13.4961 9.80405 13.6221 10.077 13.6451 10.504C13.6464 10.5711 13.6611 10.6373 13.6885 10.6986C13.7158 10.7599 13.7553 10.815 13.8044 10.8607C13.8535 10.9065 13.9113 10.9418 13.9744 10.9647C14.0375 10.9876 14.1045 10.9976 14.1716 10.994C14.2386 10.9905 14.3042 10.9735 14.3645 10.944C14.4248 10.9146 14.4785 10.8733 14.5226 10.8226C14.5666 10.7719 14.5999 10.7129 14.6206 10.6491C14.6413 10.5852 14.649 10.5179 14.6431 10.451C14.6111 9.85105 14.4231 9.32104 14.0381 8.93105C13.6511 8.54105 13.1241 8.35105 12.5261 8.31905Z" fill="#355A91"/>
</svg>
