<svg width="24" height="24" viewBox="0 0 24 24" fill="none" xmlns="http://www.w3.org/2000/svg">
<path fill-rule="evenodd" clip-rule="evenodd" d="M14.5458 11.0795H17.8672C18.3708 11.0795 18.7665 10.6631 18.7665 10.161C18.7665 9.6467 18.3708 9.24258 17.8672 9.24258H14.5458C14.0422 9.24258 13.6465 9.6467 13.6465 10.161C13.6465 10.6631 14.0422 11.0795 14.5458 11.0795ZM21.8119 4.71299C22.5433 4.71299 23.0229 4.97016 23.5026 5.53348C23.9822 6.0968 24.0661 6.90505 23.9582 7.63859L22.8191 15.672C22.6033 17.2163 21.3083 18.3539 19.7855 18.3539H6.70367C5.10891 18.3539 3.78994 17.1061 3.65804 15.4896L2.5549 2.14008L0.74431 1.82169C0.264684 1.73596 -0.0710541 1.25836 0.0128805 0.76852C0.0968151 0.267654 0.564451 -0.0642153 1.05607 0.010486L3.91584 0.450121C4.32352 0.524823 4.62329 0.866489 4.65926 1.28286L4.88708 4.02599C4.92305 4.41909 5.23481 4.71299 5.61851 4.71299H21.8119ZM6.51184 20.2893C5.50462 20.2893 4.68926 21.122 4.68926 22.1507C4.68926 23.1671 5.50462 23.9998 6.51184 23.9998C7.50706 23.9998 8.32243 23.1671 8.32243 22.1507C8.32243 21.122 7.50706 20.2893 6.51184 20.2893ZM20.0013 20.2893C18.9941 20.2893 18.1787 21.122 18.1787 22.1507C18.1787 23.1671 18.9941 23.9998 20.0013 23.9998C20.9965 23.9998 21.8119 23.1671 21.8119 22.1507C21.8119 21.122 20.9965 20.2893 20.0013 20.2893Z" fill="#222222"/>
</svg>
