<svg width="24" height="24" viewBox="0 0 24 24" fill="none" xmlns="http://www.w3.org/2000/svg">
<path d="M19.3248 9.46777C19.3248 9.46777 18.7818 16.2028 18.4668 19.0398C18.3168 20.3948 17.4798 21.1888 16.1088 21.2138C13.4998 21.2608 10.8878 21.2638 8.27979 21.2088C6.96079 21.1818 6.13779 20.3778 5.99079 19.0468C5.67379 16.1848 5.13379 9.46777 5.13379 9.46777" stroke="#4F4F4F" stroke-width="1.5" stroke-linecap="round" stroke-linejoin="round"/>
<path d="M20.708 6.23926H3.75" stroke="#4F4F4F" stroke-width="1.5" stroke-linecap="round" stroke-linejoin="round"/>
<path d="M17.4406 6.23949C16.6556 6.23949 15.9796 5.68449 15.8256 4.91549L15.5826 3.69949C15.4326 3.13849 14.9246 2.75049 14.3456 2.75049H10.1126C9.53358 2.75049 9.02558 3.13849 8.87558 3.69949L8.63258 4.91549C8.47858 5.68449 7.80258 6.23949 7.01758 6.23949" stroke="#4F4F4F" stroke-width="1.5" stroke-linecap="round" stroke-linejoin="round"/>
</svg>
