<svg width="36" height="36" viewBox="0 0 36 36" fill="none" xmlns="http://www.w3.org/2000/svg">
<path d="M33.444 15.773L26.7195 7.84808C26.4943 7.58269 26.2124 7.36916 25.8938 7.22261C25.5753 7.07606 25.2278 7.00006 24.876 7H3.6C2.7165 7 2 7.70371 2 8.57143V22.7143C2 23.582 2.7165 24.2857 3.6 24.2857H5.2C5.2 26.8894 7.349 29 10 29C12.651 29 14.8 26.8894 14.8 24.2857H21.2C21.2 26.8894 23.349 29 26 29C28.651 29 30.8 26.8894 30.8 24.2857H32.4C33.2835 24.2857 34 23.582 34 22.7143V17.2821C34 16.7306 33.803 16.1968 33.444 15.773ZM5.2 14.8571V10.1429H10V14.8571H5.2ZM10 26.6429C8.6745 26.6429 7.6 25.5875 7.6 24.2857C7.6 22.9839 8.6745 21.9286 10 21.9286C11.3255 21.9286 12.4 22.9839 12.4 24.2857C12.4 25.5875 11.3255 26.6429 10 26.6429ZM18 14.8571H13.2V10.1429H18V14.8571ZM26 26.6429C24.6745 26.6429 23.6 25.5875 23.6 24.2857C23.6 22.9839 24.6745 21.9286 26 21.9286C27.3255 21.9286 28.4 22.9839 28.4 24.2857C28.4 25.5875 27.3255 26.6429 26 26.6429ZM21.2 14.8571V10.1429H24.501L28.501 14.8571H21.2Z" fill="#FF6B6B"/>
</svg>
