<svg width="20" height="20" viewBox="0 0 20 20" fill="none" xmlns="http://www.w3.org/2000/svg">
<path d="M13.8832 1.6665C16.7165 1.6665 18.3332 3.2665 18.3332 6.10817V13.8915C18.3332 16.7165 16.7248 18.3332 13.8915 18.3332H6.10817C3.2665 18.3332 1.6665 16.7165 1.6665 13.8915V6.10817C1.6665 3.2665 3.2665 1.6665 6.10817 1.6665H13.8832ZM9.9915 6.25817C9.60817 6.25817 9.29984 6.5665 9.29984 6.94984V9.29984H6.9415C6.75817 9.29984 6.58317 9.37484 6.44984 9.49984C6.32484 9.63317 6.24984 9.80734 6.24984 9.9915C6.24984 10.3748 6.55817 10.6832 6.9415 10.6915H9.29984V13.0498C9.29984 13.4332 9.60817 13.7415 9.9915 13.7415C10.3748 13.7415 10.6832 13.4332 10.6832 13.0498V10.6915H13.0498C13.4332 10.6832 13.7415 10.3748 13.7415 9.9915C13.7415 9.60817 13.4332 9.29984 13.0498 9.29984H10.6832V6.94984C10.6832 6.5665 10.3748 6.25817 9.9915 6.25817Z" fill="black"/>
</svg>
