<svg width="36" height="36" viewBox="0 0 36 36" fill="none" xmlns="http://www.w3.org/2000/svg">
<path fill-rule="evenodd" clip-rule="evenodd" d="M10.8675 3H25.1325C26.871 3 27.7395 3 28.4415 3.2445C29.1034 3.47908 29.7023 3.86312 30.1916 4.36677C30.681 4.87043 31.0476 5.48013 31.263 6.1485C31.5 6.8715 31.5 7.7655 31.5 9.555V30.561C31.5 31.848 30.0225 32.532 29.088 31.677C28.8258 31.4347 28.482 31.3002 28.125 31.3002C27.768 31.3002 27.4242 31.4347 27.162 31.677L26.4375 32.34C25.9782 32.7647 25.3756 33.0007 24.75 33.0007C24.1244 33.0007 23.5218 32.7647 23.0625 32.34C22.6032 31.9153 22.0006 31.6793 21.375 31.6793C20.7494 31.6793 20.1468 31.9153 19.6875 32.34C19.2282 32.7647 18.6256 33.0007 18 33.0007C17.3744 33.0007 16.7718 32.7647 16.3125 32.34C15.8532 31.9153 15.2506 31.6793 14.625 31.6793C13.9994 31.6793 13.3968 31.9153 12.9375 32.34C12.4782 32.7647 11.8756 33.0007 11.25 33.0007C10.6244 33.0007 10.0218 32.7647 9.5625 32.34L8.838 31.677C8.57582 31.4347 8.23197 31.3002 7.875 31.3002C7.51803 31.3002 7.17418 31.4347 6.912 31.677C5.9775 32.532 4.5 31.848 4.5 30.561V9.555C4.5 7.7655 4.5 6.87 4.737 6.15C5.187 4.7805 6.2295 3.7065 7.5585 3.2445C8.2605 3 9.129 3 10.8675 3ZM22.59 12.75C22.6885 12.6397 22.7643 12.5111 22.8131 12.3715C22.8619 12.2319 22.8827 12.084 22.8743 11.9364C22.8659 11.7887 22.8286 11.6442 22.7644 11.511C22.7001 11.3777 22.6103 11.2585 22.5 11.16C22.3897 11.0615 22.2611 10.9857 22.1215 10.9369C21.9819 10.8881 21.834 10.8673 21.6864 10.8757C21.5387 10.8841 21.3942 10.9214 21.261 10.9856C21.1277 11.0499 21.0085 11.1397 20.91 11.25L16.3935 16.311L15.0885 14.85C14.8891 14.6296 14.6105 14.4971 14.3137 14.4814C14.0169 14.4658 13.7259 14.5682 13.5043 14.7664C13.2828 14.9645 13.1487 15.2423 13.1313 15.539C13.1139 15.8358 13.2146 16.1273 13.4115 16.35L15.5535 18.75C15.659 18.8682 15.7883 18.9628 15.933 19.0276C16.0776 19.0923 16.2343 19.1258 16.3927 19.1258C16.5512 19.1258 16.7079 19.0923 16.8525 19.0276C16.9972 18.9628 17.1265 18.8682 17.232 18.75L22.59 12.75ZM11.25 22.125C10.9516 22.125 10.6655 22.2435 10.4545 22.4545C10.2435 22.6655 10.125 22.9516 10.125 23.25C10.125 23.5484 10.2435 23.8345 10.4545 24.0455C10.6655 24.2565 10.9516 24.375 11.25 24.375H24.75C25.0484 24.375 25.3345 24.2565 25.5455 24.0455C25.7565 23.8345 25.875 23.5484 25.875 23.25C25.875 22.9516 25.7565 22.6655 25.5455 22.4545C25.3345 22.2435 25.0484 22.125 24.75 22.125H11.25Z" fill="#FF6B6B"/>
</svg>
