<svg width="24" height="24" viewBox="0 0 24 24" fill="none" xmlns="http://www.w3.org/2000/svg">
<path d="M8.6582 7.87932L9.30399 10.1158C9.91215 12.2227 10.2156 13.2767 11.1097 13.7557C12.0037 14.2359 13.1385 13.9525 15.4082 13.3883L17.8158 12.7881C20.0854 12.2239 21.2202 11.9417 21.7368 11.1122C22.2535 10.2815 21.95 9.22746 21.3406 7.12062L20.6961 4.88533C20.0879 2.77729 19.7832 1.72327 18.8904 1.24428C17.9951 0.764089 16.8603 1.0474 14.5906 1.61283L12.183 2.21067C9.9134 2.77489 8.77858 3.0582 8.26321 3.88893C7.74659 4.71847 8.05004 5.77248 8.6582 7.87932Z" fill="#222222"/>
<path d="M0.0338005 3.67417C0.0665551 3.55765 0.122262 3.44865 0.197736 3.35339C0.273209 3.25813 0.36697 3.17848 0.473656 3.119C0.580343 3.05953 0.697863 3.02138 0.819497 3.00676C0.941132 2.99213 1.06449 3.00131 1.18253 3.03376L3.29973 3.61283C3.86085 3.76321 4.37291 4.05449 4.786 4.45828C5.1991 4.86206 5.49914 5.36458 5.65687 5.91684L8.33103 15.469L8.52746 16.1401C9.32033 16.4285 9.98847 16.9774 10.4196 17.6945L10.805 17.5768L21.8324 14.7489C21.9509 14.7184 22.0743 14.7113 22.1957 14.728C22.317 14.7446 22.4338 14.7846 22.5394 14.8458C22.645 14.907 22.7374 14.9881 22.8113 15.0845C22.8852 15.1809 22.9391 15.2907 22.9699 15.4077C23.0008 15.5247 23.008 15.6465 22.9911 15.7662C22.9743 15.8859 22.9337 16.0012 22.8717 16.1054C22.8097 16.2097 22.7275 16.3008 22.6298 16.3737C22.5321 16.4466 22.4208 16.4998 22.3023 16.5303L11.316 19.3471L10.9057 19.4722C10.8983 21.0303 9.80798 22.4559 8.15823 22.8779C6.18151 23.3859 4.14885 22.2621 3.61924 20.3703C3.08963 18.4773 4.26323 16.5315 6.23994 16.0248C6.33734 16 6.43562 15.9788 6.53458 15.961L3.85918 6.40635C3.78716 6.16088 3.65199 5.93797 3.46681 5.75932C3.28164 5.58067 3.05276 5.45235 2.80245 5.38684L0.684003 4.80655C0.565952 4.77435 0.455485 4.71951 0.358915 4.64517C0.262344 4.57083 0.181561 4.47844 0.121181 4.37329C0.0608003 4.26813 0.0220054 4.15226 0.00701248 4.03231C-0.00798044 3.91235 0.00112225 3.79066 0.0338005 3.67417Z" fill="#222222"/>
</svg>
