<svg width="24" height="24" viewBox="0 0 24 24" fill="none" xmlns="http://www.w3.org/2000/svg">
<path fill-rule="evenodd" clip-rule="evenodd" d="M21.715 15.7712C21.331 15.3772 20.695 15.3702 20.301 15.7552L19.237 16.7943V10.0312C19.237 9.47825 18.79 9.03125 18.237 9.03125C17.685 9.03125 17.237 9.47825 17.237 10.0312V16.7952L16.173 15.7552C15.777 15.3702 15.145 15.3772 14.759 15.7712C14.372 16.1672 14.38 16.7992 14.775 17.1853L17.538 19.8853L17.545 19.8923C17.61 19.9543 17.68 20.0052 17.755 20.0462L17.757 20.0472L17.758 20.0483C17.758 20.0483 17.759 20.0503 17.761 20.0492V20.0503C17.798 20.0703 17.835 20.0872 17.873 20.1022L17.875 20.1032C17.978 20.1432 18.089 20.1673 18.205 20.1693C18.205 20.1693 18.227 20.1702 18.237 20.1702H18.256C18.385 20.1672 18.507 20.1412 18.619 20.0952C18.638 20.0872 18.656 20.0793 18.676 20.0702C18.679 20.0672 18.679 20.0682 18.679 20.0682L18.683 20.0662C18.776 20.0203 18.861 19.9593 18.939 19.8833L21.699 17.1853C22.094 16.7992 22.102 16.1672 21.715 15.7712Z" fill="black"/>
<path fill-rule="evenodd" clip-rule="evenodd" d="M3 10.4199H14.753C15.306 10.4199 15.753 9.97292 15.753 9.41992C15.753 8.86692 15.306 8.41992 14.753 8.41992H3C2.447 8.41992 2 8.86692 2 9.41992C2 9.97292 2.447 10.4199 3 10.4199Z" fill="black"/>
<path fill-rule="evenodd" clip-rule="evenodd" d="M3 5.83008H18.67C19.223 5.83008 19.67 5.38308 19.67 4.83008C19.67 4.27708 19.223 3.83008 18.67 3.83008H3C2.447 3.83008 2 4.27708 2 4.83008C2 5.38308 2.447 5.83008 3 5.83008Z" fill="black"/>
<path fill-rule="evenodd" clip-rule="evenodd" d="M6.91895 17.5898H3.00195C2.44895 17.5898 2.00195 18.0368 2.00195 18.5898C2.00195 19.1428 2.44895 19.5898 3.00195 19.5898H6.91895C7.47195 19.5898 7.91895 19.1428 7.91895 18.5898C7.91895 18.0368 7.47195 17.5898 6.91895 17.5898Z" fill="black"/>
<path fill-rule="evenodd" clip-rule="evenodd" d="M10.835 13.0098H3C2.447 13.0098 2 13.4568 2 14.0098C2 14.5628 2.447 15.0098 3 15.0098H10.835C11.388 15.0098 11.835 14.5628 11.835 14.0098C11.835 13.4568 11.388 13.0098 10.835 13.0098Z" fill="black"/>
</svg>
