<svg width="24" height="24" viewBox="0 0 24 24" fill="none" xmlns="http://www.w3.org/2000/svg">
<path fill-rule="evenodd" clip-rule="evenodd" d="M16.3856 8.08964C16.3856 10.4351 14.4839 12.3355 12.1397 12.3355C9.79427 12.3355 7.89258 10.4351 7.89258 8.08964C7.89258 5.74418 9.79427 3.84375 12.1397 3.84375C14.4839 3.84375 16.3856 5.74418 16.3856 8.08964Z" stroke="#FF6B6B" stroke-width="1.5" stroke-linecap="round" stroke-linejoin="round"/>
<path fill-rule="evenodd" clip-rule="evenodd" d="M18.6423 19.195C18.738 19.5538 18.5673 19.9227 18.2513 20.1179C16.4857 21.208 14.4034 21.8433 12.1754 21.8433C9.92265 21.8433 7.81597 21.1966 6.04563 20.0839C5.73166 19.8866 5.56423 19.5168 5.66313 19.1594C6.1796 17.2931 8.05657 15.4375 12.1378 15.4375C16.2678 15.4375 18.1385 17.3066 18.6423 19.195Z" stroke="#FF6B6B" stroke-width="1.5" stroke-linecap="round" stroke-linejoin="round"/>
</svg>
